HIERARCHY
ROOT SpineBase
{
  OFFSET 0.000000 0.000000 0.000000
  CHANNELS 6 Xposition Yposition Zposition Zrotation Xrotation Yrotation
  JOINT SpineMid
  {
    OFFSET 0.000000 32.657420 0.000000
    CHANNELS 3 Zrotation Xrotation Yrotation
    JOINT SpineShoulder
    {
      OFFSET -0.003867 24.234867 -0.866496
      CHANNELS 3 Zrotation Xrotation Yrotation
      JOINT Neck
      {
        OFFSET 0.021386 8.017723 -0.635904
        CHANNELS 3 Zrotation Xrotation Yrotation
        JOINT Head
        {
          OFFSET 3.015332 13.089642 4.161686
          CHANNELS 3 Zrotation Xrotation Yrotation
          End Site
          {
            OFFSET 0 0 0
          }
        }
      }
      JOINT ShoulderLeft
      {
        OFFSET -10.750683 -2.973568 -10.723264
        CHANNELS 3 Zrotation Xrotation Yrotation
        JOINT ElbowLeft
        {
          OFFSET -7.440466 -24.250794 -6.507933
          CHANNELS 3 Zrotation Xrotation Yrotation
          JOINT WristLeft
          {
            OFFSET 0.394171 -22.759237 -6.171970
            CHANNELS 3 Zrotation Xrotation Yrotation
            JOINT HandLeft
            {
              OFFSET 1.460124 -8.499739 0.065842
              CHANNELS 3 Zrotation Xrotation Yrotation
              JOINT HandTipLeft
              {
                OFFSET -0.146439 -8.019895 -0.871175
                CHANNELS 3 Zrotation Xrotation Yrotation
                End Site
                {
                  OFFSET 0 0 0
                }
              }
              JOINT ThumbLeft
              {
                OFFSET -3.691562 3.282540 -3.027920
                CHANNELS 3 Zrotation Xrotation Yrotation
                End Site
                {
                  OFFSET 0 0 0
                }
              }
            }
          }
        }
      }
      JOINT ShoulderRight
      {
        OFFSET 13.553698 -4.140188 11.656513
        CHANNELS 3 Zrotation Xrotation Yrotation
        JOINT ElbowRight
        {
          OFFSET 3.323502 -24.227908 8.348381
          CHANNELS 3 Zrotation Xrotation Yrotation
          JOINT WristRight
          {
            OFFSET -0.972929 -24.818255 7.656854
            CHANNELS 3 Zrotation Xrotation Yrotation
            JOINT HandRight
            {
              OFFSET 1.378266 -14.108755 3.721195
              CHANNELS 3 Zrotation Xrotation Yrotation
              JOINT HandTipRight
              {
                OFFSET 2.454230 -7.084603 -2.248271
                CHANNELS 3 Zrotation Xrotation Yrotation
                End Site
                {
                  OFFSET 0 0 0
                }
              }
              JOINT ThumbRight
              {
                OFFSET 3.838902 -2.284712 -5.512451
                CHANNELS 3 Zrotation Xrotation Yrotation
                End Site
                {
                  OFFSET 0 0 0
                }
              }
            }
          }
        }
      }
    }
  }
  JOINT HipLeft
  {
    OFFSET -5.045934 1.987949 -7.711411
    CHANNELS 3 Zrotation Xrotation Yrotation
    JOINT KneeLeft
    {
      OFFSET -9.988505 -34.737207 -4.210622
      CHANNELS 3 Zrotation Xrotation Yrotation
      JOINT AnkleLeft
      {
        OFFSET -8.639890 -35.979604 1.542842
        CHANNELS 3 Zrotation Xrotation Yrotation
        JOINT FootLeft
        {
          OFFSET 1.207431 -6.976740 -8.191736
          CHANNELS 3 Zrotation Xrotation Yrotation
          End Site
          {
            OFFSET 0 0 0
          }
        }
      }
    }
  }
  JOINT HipRight
  {
    OFFSET 5.842140 -0.081105 0.533218
    CHANNELS 3 Zrotation Xrotation Yrotation
    JOINT KneeRight
    {
      OFFSET -5.837877 -37.296709 3.114243
      CHANNELS 3 Zrotation Xrotation Yrotation
      JOINT AnkleRight
      {
        OFFSET -6.606608 -36.218311 12.538251
        CHANNELS 3 Zrotation Xrotation Yrotation
        JOINT FootRight
        {
          OFFSET 3.244531 -7.576445 -5.607202
          CHANNELS 3 Zrotation Xrotation Yrotation
          End Site
          {
            OFFSET 0 0 0
          }
        }
      }
    }
  }
}
MOTION
Frames: 10
Frame Time: 0.033333
-38.170086 81.753742 341.424551 -0.000000 0.000000 -37.133606 -0.000000 0.000000 37.133606 -0.000000 0.000000 0.000000 -0.000000 0.000000 0.000000 0.000000 0.000000 0.000000 -0.000000 0.000000 0.000000 -0.000000 0.000000 0.000000 -0.000000 0.000000 0.000000 -0.000000 0.000000 0.000000 0.000000 0.000000 0.000000 0.000000 0.000000 0.000000 -0.000000 0.000000 0.000000 -0.000000 0.000000 0.000000 -0.000000 0.000000 0.000000 -0.000000 0.000000 0.000000 0.000000 0.000000 0.000000 0.000000 0.000000 0.000000 -0.000000 0.000000 37.133606 -0.000000 0.000000 0.000000 -0.000000 0.000000 0.000000 0.000000 0.000000 0.000000 -0.000000 0.000000 37.133606 -0.000000 0.000000 0.000000 -0.000000 0.000000 0.000000 0.000000 0.000000 0.000000
-37.936013 81.871705 340.848592 0.388904 -0.110893 -38.089912 -0.374494 -0.152636 38.089790 -0.000000 0.000000 0.000000 -0.000000 0.000000 0.000000 0.000000 0.000000 0.000000 -0.000000 0.000000 0.000000 1.420125 -0.499297 -0.387970 0.479154 -0.704144 0.211692 0.008556 0.350386 -0.005235 0.000000 0.000000 0.000000 0.000000 0.000000 0.000000 -0.000000 0.000000 0.000000 -0.000000 0.000000 0.000000 -0.092416 4.028670 0.376111 3.023457 0.696609 0.413536 0.000000 0.000000 0.000000 0.000000 0.000000 0.000000 -0.314322 -0.943637 38.333363 0.443425 0.657788 -0.245542 -0.574132 -0.390478 0.607539 0.000000 0.000000 0.000000 0.941059 -0.816659 38.361975 -1.478859 2.134787 -0.671599 -0.548391 -4.378032 -0.094109 0.000000 0.000000 0.000000
-37.722605 81.973770 340.371557 0.729754 -0.225438 -38.954174 -0.709225 -0.283487 38.953855 -0.000000 0.000000 0.000000 -0.000000 0.000000 0.000000 0.000000 0.000000 0.000000 1.361687 0.102553 -0.399481 1.442275 -1.033981 -0.351250 0.614419 -1.261523 0.457034 0.181710 0.602866 -0.030545 0.000000 0.000000 0.000000 0.000000 0.000000 0.000000 -0.849567 0.533857 -0.216122 1.312437 0.466517 0.328940 -0.694436 6.532814 0.586944 5.885899 1.278896 0.864756 0.000000 0.000000 0.000000 0.000000 0.000000 0.000000 -0.588563 -1.755942 39.407568 0.841648 1.214254 -0.460484 -1.086560 -0.749743 1.149637 0.000000 0.000000 0.000000 1.725661 -1.442295 39.468407 -2.726307 3.897053 -1.181394 0.079527 -7.058539 -0.550686 0.000000 0.000000 0.000000
-37.529861 82.059939 339.993447 1.021913 -0.343513 -39.727799 -0.106499 -0.115036 39.762322 -0.021342 -0.004596 0.037180 -0.844701 0.369528 -0.065273 0.000000 0.000000 0.000000 1.084634 0.527534 -0.650068 2.195351 -1.453600 -0.514972 0.418675 -1.683413 0.723670 0.539478 0.747340 -0.075659 0.000000 0.000000 0.000000 0.000000 0.000000 0.000000 -2.043849 1.319546 -0.332162 1.837377 0.596879 0.434390 -1.054947 9.054260 0.826112 8.566163 1.599512 1.305394 0.000000 0.000000 0.000000 0.000000 0.000000 0.000000 -0.833006 -2.436168 40.357979 1.329564 0.862417 -0.446577 -1.681734 -0.261981 1.448505 0.000000 0.000000 0.000000 2.329470 -1.884432 40.441603 -3.750885 5.272580 -1.557512 1.905869 -8.045077 -1.269016 0.000000 0.000000 0.000000
-37.357781 82.130210 339.714261 1.264866 -0.464991 -40.412337 -0.154324 -0.130036 40.456031 -0.036767 -0.005880 0.044899 -1.025614 0.471338 -0.078408 0.000000 0.000000 0.000000 1.397170 0.691070 -0.826031 2.940705 -1.795955 -0.667482 -0.091197 -1.982908 1.000574 1.095306 0.777261 -0.139026 0.000000 0.000000 0.000000 0.000000 0.000000 0.000000 -2.525188 1.934682 -0.365598 2.275614 0.657595 0.501830 -1.416217 11.188897 1.041703 11.072108 1.555399 1.711735 0.000000 0.000000 0.000000 0.000000 0.000000 0.000000 -1.056493 -2.983956 41.186231 1.668428 1.088862 -0.565269 -2.105833 -0.415860 1.835621 0.000000 0.000000 0.000000 2.733231 -2.151434 41.273158 -4.557935 6.251756 -1.822751 5.010188 -7.317148 -2.275945 0.000000 0.000000 0.000000
-37.206365 82.184584 339.533999 1.458216 -0.589744 -41.009437 -0.208961 -0.133298 41.060772 -0.056346 -0.007069 0.050271 -1.155799 0.562207 -0.087533 0.000000 0.000000 0.000000 1.687357 0.849415 -0.981161 3.658260 -2.053868 -0.807175 -0.897079 -2.172726 1.278015 1.857764 0.688566 -0.217718 0.000000 0.000000 0.000000 0.000000 0.000000 0.000000 -2.906638 2.636033 -0.361096 2.627735 0.648223 0.531558 -1.775329 13.001670 1.240256 13.429715 1.071151 2.075128 0.000000 0.000000 0.000000 0.000000 0.000000 0.000000 -1.266481 -3.399147 41.893930 1.956313 1.288548 -0.667282 -2.461183 -0.600840 2.171093 0.000000 0.000000 0.000000 2.922708 -2.251566 41.957832 -5.150622 6.828598 -1.994599 9.502474 -4.841112 -3.724669 0.000000 0.000000 0.000000
-37.054121 82.235050 339.491878 1.626281 -0.748703 -41.513605 -0.298915 -0.123850 41.571507 -0.087599 -0.007072 0.052939 -1.231618 0.652605 -0.092452 0.000000 0.000000 0.000000 1.985635 0.959335 -1.104767 4.412695 -2.082220 -0.980081 -1.998038 -2.422545 1.572766 2.159384 0.956565 -0.246467 0.000000 0.000000 0.000000 0.000000 0.000000 0.000000 -3.183771 3.729049 -0.272383 2.940424 0.551141 0.494511 -2.030432 14.989539 1.523687 15.583072 -1.196847 2.332518 0.000000 0.000000 0.000000 0.000000 0.000000 0.000000 -1.536004 -3.662213 42.468549 2.227097 1.526070 -0.767019 -2.881124 -0.938048 2.601549 0.000000 0.000000 0.000000 2.998959 -2.182031 42.514584 -5.735164 7.266612 -2.147401 17.717173 0.895942 -6.668761 0.000000 0.000000 0.000000
-36.959898 82.246866 339.496890 1.717418 -0.831900 -41.855414 -0.414144 -0.100337 41.915095 -0.133985 -0.005787 0.050394 -2.237764 0.320803 0.318486 0.000000 0.000000 0.000000 2.269361 0.989469 -1.191816 5.014284 -2.058100 -1.110083 -2.955848 -2.773698 1.786375 4.370358 0.717316 -0.509229 0.000000 0.000000 0.000000 0.000000 0.000000 0.000000 -3.291250 4.690725 -0.159280 3.187348 0.382651 0.444552 -2.535837 16.257320 1.671464 17.722264 -2.402225 2.791139 0.000000 0.000000 0.000000 0.000000 0.000000 0.000000 -1.576622 -3.889418 42.885648 2.101250 2.638858 -1.064666 -2.951822 -2.015958 3.143971 0.000000 0.000000 0.000000 2.866972 -2.021746 42.839066 -6.005721 7.173750 -2.191783 26.319776 7.145941 -10.514078 0.000000 0.000000 0.000000
-36.871550 82.248769 339.630272 1.747631 -0.944763 -42.116710 -0.456706 -0.085067 42.178544 -0.154454 -0.020830 0.049800 -2.618202 0.337249 0.464590 0.000000 0.000000 0.000000 2.393517 1.133838 -1.248108 5.672311 -1.879882 -1.262030 -4.184844 -3.586144 1.928119 5.513131 0.874272 -0.567027 0.000000 0.000000 0.000000 0.000000 0.000000 0.000000 -3.470277 5.849337 -0.040855 3.387531 -0.104759 0.385369 -2.931872 17.280975 1.805891 19.745910 -4.040851 3.114106 0.000000 0.000000 0.000000 0.000000 0.000000 0.000000 -1.857845 -3.848436 43.125500 2.257386 2.513356 -1.049130 -3.131324 -2.183405 3.329283 0.000000 0.000000 0.000000 2.853053 -1.604912 43.077529 -6.685745 7.034243 -2.295838 36.733365 14.584802 -15.655093 0.000000 0.000000 0.000000
-36.808757 82.238362 339.795427 1.713259 -1.071661 -42.424999 -0.482451 -0.046866 42.487357 -0.172544 -0.015983 0.047600 -2.990627 0.423124 0.603986 0.000000 0.000000 0.000000 2.686151 1.435929 -1.398915 5.847875 -2.163170 -1.193981 -6.473879 -2.431514 2.165230 8.365099 -0.811496 -0.735431 0.000000 0.000000 0.000000 0.000000 0.000000 0.000000 -3.421143 6.243173 0.018666 3.245398 0.071053 0.277734 -3.226496 17.781986 1.916351 21.155949 -5.727056 3.342598 0.000000 0.000000 0.000000 0.000000 0.000000 0.000000 -2.074326 -3.738941 43.411525 2.383180 2.390586 -1.029674 -3.126848 -2.212017 3.319058 0.000000 0.000000 0.000000 2.682538 -1.070969 43.317644 -7.130827 6.536190 -2.326383 38.016793 15.331318 -16.283485 0.000000 0.000000 0.000000
